<svg width="80" height="80" viewBox="0 0 80 80" fill="none" xmlns="http://www.w3.org/2000/svg">
  <path d="M63.01 37.16l-23 14.14-23-14.14" stroke="#CE253D" stroke-width="2" stroke-miterlimit="10" stroke-linecap="round" stroke-linejoin="round"/>
  <path d="M63.01 37v22.94c0 1.68-1.38 3.06-3.07 3.06H20.07C18.38 63 17 61.62 17 59.94V37M56.02 30.87l6.99 6.06M17.01 36.93l6.96-6.02M40.01 33a5 5 0 100-10 5 5 0 000 10z" stroke="#CE253D" stroke-width="2" stroke-miterlimit="10" stroke-linecap="round" stroke-linejoin="round"/>
  <path d="M45.01 23v10c0 2.36 3.31 2.42 4.63.88 1.42-1.66 1.35-4.33 1.35-5.88 0-6.07-4.92-11-10.99-11s-10.99 4.93-10.99 11S33.93 39 40 39" stroke="#CE253D" stroke-width="2" stroke-miterlimit="10" stroke-linecap="round" stroke-linejoin="round"/>
</svg>
